# xmcd CD database file
#
# Track frame offsets:
#	150
#	36150
#	71700
#	104900
#	136700
#	207575
#	274025
#
# Disc length: 4474 seconds
#
# Revision: 0
# Processed by: cddbd v1.5.2PL0 Copyright (c) Steve Scherf et al.
# Submitted via: CDex 1.70beta2
#
DISCID=6d117807
DTITLE=Abraham - Le Pouvoir De Créer - CD2
DYEAR=2005
DGENRE=New Age
TTITLE0=Évolution joyeuse
TTITLE1=Trouver votre véritable équilibre
TTITLE2=Loi d'attraction
TTITLE3=Le processus de création délibérée
TTITLE4=Votre point de pouvoir est maintenant
TTITLE5=Livre des aspects positifs
TTITLE6=Loi de l'autorisation
EXTD=YEAR: 2005
EXTT0=
EXTT1=
EXTT2=
EXTT3=
EXTT4=
EXTT5=
EXTT6=
PLAYORDER=
